# AST/ASF file generated using VICON BodyLanguage
# -----------------------------------------------
:version 1.10
:name VICON
:units
  mass 1.0
  length 0.45
  angle deg
:documentation
   .ast/.asf automatically generated from VICON data using
   VICON BodyBuilder and BodyLanguage model FoxedUp or BRILLIANT.MOD
:root
   order TX TY TZ RX RY RZ
   axis XYZ
   position 0 0 0  
   orientation 0 0 0 
:bonedata
  begin
     id 1 
     name lhipjoint
     direction 0.612567 -0.751349 0.245431 
     length 2.42285 
     axis 0 0 0  XYZ
  end
  begin
     id 2 
     name lfemur
     direction 0.34202 -0.939693 0  
     length 7.11304  
     axis 0 0 20  XYZ
    dof rx ry rz
    limits (-160.0 20.0)
           (-70.0 70.0)
           (-60.0 70.0)
  end
  begin
     id 3 
     name ltibia
     direction 0.34202 -0.939693 0   
     length 7.84529   
     axis 0 0 20   XYZ
    dof rx
    limits (-10.0 170.0)
  end
  begin
     id 4 
     name lfoot
     direction 0.0779239 -0.214094 0.9737   
     length 1.97176   
     axis -90 7.62852e-016 20   XYZ
    dof rx rz
    limits (-45.0 90.0)
           (-70.0 20.0)
  end
  begin
     id 5 
     name ltoes
     direction 1.53565e-011 -4.21709e-011 1   
     length 0.993197   
     axis -90 7.62852e-016 20   XYZ
    dof rx
    limits (-90.0 20.0)
  end
  begin
     id 6 
     name rhipjoint
     direction -0.665722 -0.709315 0.231701   
     length 2.56642  
     axis 0 0 0  XYZ 
  end
  begin
     id 7 
     name rfemur
     direction -0.34202 -0.939693 0   
     length 7.32108   
     axis 0 0 -20   XYZ
    dof rx ry rz
    limits (-160.0 20.0)
           (-70.0 70.0)
           (-70.0 60.0)
  end
  begin
     id 8 
     name rtibia
     direction -0.34202 -0.939693 0   
     length 7.81254   
     axis 0 0 -20   XYZ
    dof rx
    limits (-10.0 170.0)
 end
 begin
     id 9 
     name rfoot
     direction -0.0832806 -0.228812 0.969902   
     length 2.08278  
     axis -90 -7.62852e-016 -20   XYZ
    dof rx rz
    limits (-45.0 90.0)
           (-20.0 70.0)
  end
  begin
     id 10 
     name rtoes
     direction -1.53589e-011 -4.22086e-011 1   
     length 1.04609   
     axis -90 -7.62852e-016 -20   XYZ
    dof rx
    limits (-90.0 20.0)
  end
  begin
     id 11 
     name lowerback
     direction -0.00506013 0.988403 -0.151766   
     length 2.01978   
     axis 0 0 0   XYZ
    dof rx ry rz
    limits (-20.0 45.0)
           (-30.0 30.0)
           (-30.0 30.0)
  end
  begin
     id 12 
     name upperback
     direction -0.00836389 0.99968 0.0238859   
     length 2.01276   
     axis 0 0 0   XYZ
    dof rx ry rz
    limits (-20.0 45.0)
           (-30.0 30.0)
           (-30.0 30.0)
  end
  begin
     id 13 
     name thorax
     direction -0.00684136 0.995386 0.0957043   
     length 2.07303   
     axis 0 0 0   XYZ
    dof rx ry rz
    limits (-20.0 45.0)
           (-30.0 30.0)
           (-30.0 30.0)
  end
  begin
     id 14 
     name lowerneck
     direction -0.0161045 0.999661 0.0204485   
     length 1.91243   
     axis 0 0 0   XYZ
    dof rx ry rz
    limits (-20.0 45.0)
           (-30.0 30.0)
           (-30.0 30.0)
  end
  begin
     id 15 
     name upperneck
     direction 0.0553583 0.990946 -0.122319   
     length 1.91574   
     axis 0 0 0   XYZ
    dof rx ry rz
    limits (-20.0 45.0)
           (-30.0 30.0)
           (-30.0 30.0)
  end
  begin
     id 16
     name head
     direction 0.0180273 0.998839 -0.0446756  
     length 1.92693  
     axis 0 0 0   XYZ
    dof rx ry rz
    limits (-20.0 45.0)
           (-30.0 30.0)
           (-30.0 30.0)
  end
  begin
     id 17 
     name lclavicle
     direction 0.945646 0.319323 -0.0615358  
     length 4.0076  
     axis 0 0 0   XYZ
    dof ry rz
    limits (-20.0 10.0)
           (0.0 20.0)
  end
  begin
     id 18 
     name lhumerus
     direction 1 -4.48967e-011 -2.79996e-027   
     length 5.64147   
     axis 180 -30 -90   XYZ
    dof rx ry rz
    limits (-60.0 90.0)
           (-90.0 90.0)
           (-90.0 90.0)
  end
  begin
     id 19
     name lradius
     direction 1 -4.48976e-011 -9.5122e-027   
     length 2.86444   
     axis 180 -30 -90   XYZ
    dof rx
    limits (-10.0 170.0)
  end
  begin
     id 20
     name lwrist
     direction 1 -4.48983e-011 -1.24047e-026   
     length 1.43222   
     axis 9.05591e-015 90 90   XYZ
    dof ry
    limits (-180.0 0.0)
 end
  begin
     id 21 
     name lhand
     direction 1 -4.4892e-011 -2.48094e-026   
     length 0.722123   
     axis 1.58305e-014 90 90   XYZ
    dof rx rz
    limits (-90.0 90.0)
           (-45.0 45.0)
  end
  begin
     id 22 
     name lfingers
     direction 1 -4.48895e-011 -4.96187e-026   
     length 0.582194   
     axis 3.1661e-014 90 90   XYZ
    dof rx
    limits (0.0 90.0)
  end
  begin
     id 23
     name lthumb
     direction 0.707107 -6.34961e-011 0.707107   
     length 0.835918   
     axis -90 45 2.85299e-015   XYZ
    dof rx rz
    limits (-45.0 45.0)
           (-45.0 45.0)
  end
  begin
     id 24 
     name rclavicle
     direction -0.932635 0.324218 -0.15835   
     length 3.65819  
     axis 0 0 0   XYZ 
    dof ry rz
    limits (-10.0 20.0)
           (-20.0 0.0)
  end
  begin
     id 25 
     name rhumerus
     direction -1 -4.48965e-011 -4.02296e-027  
     length 5.44729   
     axis 180 30 90   XYZ
    dof rx ry rz
    limits (-90.0 60.0)
           (-90.0 90.0)
           (-90.0 90.0)
  end
  begin
     id 26 
     name rradius
     direction -1 -4.48957e-011 -8.81087e-027   
     length 3.08821   
     axis 180 30 90   XYZ
    dof rx
    limits (-10.0 170.0)
  end
  begin
     id 27 
     name rwrist
     direction -1 -4.49015e-011 -1.24047e-026   
     length 1.5441   
     axis 9.05591e-015 -90 -90   XYZ
    dof ry
    limits (-180.0 0.0)
  end
  begin
     id 28
     name rhand
     direction -1 -4.4891e-011 -2.48094e-026   
     length 0.821049   
     axis 1.58305e-014 -90 -90   XYZ
    dof rx rz
    limits (-90.0 90.0)
           (-45.0 45.0)
  end
  begin
     id 29
     name rfingers
     direction -1 -4.48985e-011 -4.96187e-026   
     length 0.661951   
     axis 3.1661e-014 -90 -90   XYZ
    dof rx
    limits (0.0 90.0)
  end
  begin
     id 30
     name rthumb
     direction -0.707107 -6.34906e-011 0.707107   
     length 0.950433   
     axis -90 -45 -2.85299e-015   XYZ
    dof rx rz
    limits (-45.0 45.0)
           (-45.0 45.0)
  end
:hierarchy
  begin
    root lhipjoint rhipjoint lowerback
    lhipjoint lfemur
    lfemur ltibia
    ltibia lfoot
    lfoot ltoes
    rhipjoint rfemur
    rfemur rtibia
    rtibia rfoot
    rfoot rtoes
    lowerback upperback
    upperback thorax
    thorax lowerneck lclavicle rclavicle
    lowerneck upperneck
    upperneck head
    lclavicle lhumerus
    lhumerus lradius
    lradius lwrist
    lwrist lhand lthumb
    lhand lfingers
    rclavicle rhumerus
    rhumerus rradius
    rradius rwrist
    rwrist rhand rthumb
    rhand rfingers
  end

#!OML:ASF F:\VICON\USERDATA\INSTALL\rory3\rory3.ASF
:FULLY-SPECIFIED
:DEGREES
672
root 3.06636 17.6752 0.498604 -31.7879 87.9392 -30.1754
lowerback 5.8315 -0.472821 3.40992
upperback -3.00149 -0.433631 -1.78899
thorax -6.45758 -0.397156 -3.74474
lowerneck -4.92206 -5.18237 -4.73709
upperneck 12.1462 -7.44971 8.22775
head 4.93441 -3.33957 2.88009
rclavicle -2.68359e-015 -8.34896e-015
rhumerus -18.3109 30.6859 -19.9445
rradius 97.3067
rwrist -38.1003
rhand 10.2755 18.679
rfingers 7.12502
rthumb 35.3876 -7.78567
lclavicle -2.68359e-015 -8.34896e-015
lhumerus -17.0255 38.8015 33.1491
lradius 122.595
lwrist 78.9677
lhand -4.29945 1.48823
lfingers 7.12502
lthumb 21.4664 30.3189
rfemur 1.50601 0.343348 20.1921
rtibia 14.0432
rfoot -14.9489 0.0126721
rtoes -8.04071
lfemur 3.85009 1.63813 -14.6864
ltibia 8.96818
lfoot -11.6261 1.15632
ltoes -7.10838
673
root 3.06411 17.6762 0.499911 -32.393 87.9116 -30.7756
lowerback 5.82101 -0.469666 3.46452
upperback -3.0094 -0.426415 -1.81629
thorax -6.46041 -0.396735 -3.80534
lowerneck -4.96389 -5.19697 -4.68736
upperneck 12.2319 -7.47943 8.24416
head 4.96866 -3.34722 2.87373
rclavicle -9.93923e-017 -8.34896e-015
rhumerus -17.8684 33.358 -19.4411
rradius 96.9291
rwrist -37.4503
rhand 10.8614 18.6978
rfingers 7.12502
rthumb 35.9429 -7.63273
lclavicle -9.93923e-017 -8.34896e-015
lhumerus -16.8922 38.7601 33.0985
lradius 122.632
lwrist 79.0694
lhand -3.89071 2.64258
lfingers 7.12502
lthumb 21.8589 31.4279
rfemur 1.51552 0.359963 20.2463
rtibia 14.0281
rfoot -14.9219 -0.0920267
rtoes -8.36183
lfemur 3.85723 1.64758 -14.6405
ltibia 8.97321
lfoot -11.6616 1.14866
ltoes -6.87573
674
root 3.0617 17.6765 0.500945 -32.3068 87.9052 -30.6992
lowerback 5.81883 -0.469552 3.48088
upperback -3.02675 -0.425617 -1.83434
thorax -6.47798 -0.398047 -3.83387
lowerneck -5.00182 -5.20299 -4.68581
upperneck 12.2544 -7.49005 8.25739
head 4.98321 -3.35009 2.87579
rclavicle 9.44227e-016 1.47101e-014
rhumerus -17.4677 36.0095 -18.9195
rradius 96.718
rwrist -36.7
rhand 11.279 18.8848
rfingers 7.12502
rthumb 36.3384 -7.34781
lclavicle 9.44227e-016 1.47101e-014
lhumerus -16.7848 38.764 33.1026
lradius 122.642
lwrist 79.0094
lhand -3.84794 2.5358
lfingers 7.12502
lthumb 21.9 31.3163
rfemur 1.50446 0.42391 20.2596
rtibia 14.0087
rfoot -14.9165 -0.0813483
rtoes -7.75341
lfemur 3.81673 1.6536 -14.631
ltibia 8.98796
lfoot -11.6389 1.17924
ltoes -7.31614
675
root 3.0603 17.6762 0.501318 -31.9492 87.8805 -30.352
lowerback 5.78753 -0.476551 3.49705
upperback -3.03684 -0.435062 -1.84809
thorax -6.47198 -0.403681 -3.85648
lowerneck -4.98182 -5.1915 -4.66558
upperneck 12.201 -7.47207 8.24089
head 4.96082 -3.34341 2.86932
rclavicle -9.49197e-015 -7.55382e-015
rhumerus -16.9152 38.5089 -18.4118
rradius 96.4684
rwrist -35.5788
rhand 11.5467 18.9241
rfingers 7.12502
rthumb 36.5918 -7.24483
lclavicle -9.49197e-015 -7.55382e-015
lhumerus -16.713 38.8142 33.1052
lradius 122.657
lwrist 78.8785
lhand -4.24918 1.22096
lfingers 7.12502
lthumb 21.5147 30.0461
rfemur 1.50179 0.440282 20.2607
rtibia 13.9869
rfoot -14.9072 0.0490378
rtoes -6.47067
lfemur 3.78491 1.68066 -14.6233
ltibia 9.00656
lfoot -11.6296 1.222
ltoes -7.84435
676
root 3.05923 17.6762 0.501794 -31.6294 87.8556 -30.0248
lowerback 5.77099 -0.477264 3.52818
upperback -3.04491 -0.435116 -1.87423
thorax -6.47184 -0.405733 -3.90175
lowerneck -4.93166 -5.18163 -4.58785
upperneck 12.1605 -7.45701 8.18043
head 4.93371 -3.33831 2.84039
rclavicle -9.74045e-015 2.06736e-014
rhumerus -16.2629 41.0197 -17.8903
rradius 96.2136
rwrist -34.4638
rhand 11.7786 18.7677
rfingers 7.12502
rthumb 36.8113 -7.34533
lclavicle -9.74045e-015 2.06736e-014
lhumerus -16.6432 38.8374 33.1148
lradius 122.718
lwrist 78.8103
lhand -4.463 0.629544
lfingers 7.12502
lthumb 21.3093 29.478
rfemur 1.51265 0.462204 20.2628
rtibia 13.9575
rfoot -14.881 0.0668325
rtoes -6.17251
lfemur 3.77844 1.70637 -14.6222
ltibia 9.04906
lfoot -11.6481 1.23005
ltoes -7.66109
677
root 3.05773 17.6767 0.502804 -31.9763 87.8088 -30.3392
lowerback 5.76435 -0.482953 3.57072
upperback -3.02438 -0.440035 -1.88035
thorax -6.44738 -0.409364 -3.93161
lowerneck -4.96949 -5.16878 -4.53825
upperneck 12.1877 -7.44012 8.14018
head 4.94407 -3.32871 2.81993
rclavicle 4.87022e-015 4.37326e-015
rhumerus -15.5773 43.4836 -17.36
rradius 96.0102
rwrist -33.5418
rhand 12.0581 18.9801
rfingers 7.12502
rthumb 37.0756 -7.06477
lclavicle 4.87022e-015 4.37326e-015
lhumerus -16.5774 38.8901 33.0853
lradius 122.749
lwrist 78.7471
lhand -4.47141 0.604442
lfingers 7.12502
lthumb 21.3012 29.4538
rfemur 1.55158 0.508992 20.3018
rtibia 13.9253
rfoot -14.8674 0.033421
rtoes -6.62469
lfemur 3.79826 1.7352 -14.5821
ltibia 9.09367
lfoot -11.6528 1.18677
ltoes -7.13484
678
root 3.05638 17.6767 0.503677 -32.6942 87.7308 -31.0702
lowerback 5.71697 -0.474871 3.64608
upperback -3.02072 -0.424439 -1.8815
thorax -6.41581 -0.4042 -3.97719
lowerneck -4.99674 -5.16296 -4.51474
upperneck 12.2141 -7.43471 8.13531
head 4.95542 -3.32394 2.8142
rclavicle -1.93815e-015 -9.93923e-015
rhumerus -15.0493 45.7682 -16.9933
rradius 95.8142
rwrist -32.7078
rhand 12.5468 19.5211
rfingers 7.12502
rthumb 37.5377 -6.40247
lclavicle -1.93815e-015 -9.93923e-015
lhumerus -16.4811 38.9077 33.0843
lradius 122.725
lwrist 78.6586
lhand -4.43 0.525541
lfingers 7.12502
lthumb 21.341 29.3704
rfemur 1.53295 0.546225 20.378
rtibia 13.917
rfoot -14.856 0.0444814
rtoes -7.15135
lfemur 3.79416 1.78513 -14.5075
ltibia 9.08921
lfoot -11.6277 1.16221
ltoes -6.89677
